<svg width="97" height="48" viewBox="0 0 97 48" fill="none" xmlns="http://www.w3.org/2000/svg">
<path d="M76.8872 40.2139C74.7899 40.2139 72.9763 39.7694 71.4461 38.8803C69.9249 37.9823 68.7503 36.734 67.9223 35.1355C67.0942 33.528 66.6801 31.6645 66.6801 29.5451C66.6801 27.4078 67.0942 25.5399 67.9223 23.9413C68.7503 22.3338 69.9249 21.0855 71.4461 20.1965C72.9763 19.2984 74.7899 18.8494 76.8872 18.8494C78.9844 18.8494 80.7936 19.2984 82.3147 20.1965C83.8449 21.0855 85.024 22.3338 85.8521 23.9413C86.6802 25.5399 87.0942 27.4078 87.0942 29.5451C87.0942 31.6645 86.6802 33.528 85.8521 35.1355C85.024 36.734 83.8449 37.9823 82.3147 38.8803C80.7936 39.7694 78.9844 40.2139 76.8872 40.2139ZM76.9142 35.7686C77.8682 35.7686 78.6648 35.4992 79.3039 34.9604C79.943 34.4126 80.4245 33.6672 80.7486 32.7242C81.0816 31.7813 81.2481 30.7081 81.2481 29.5047C81.2481 28.3013 81.0816 27.2282 80.7486 26.2852C80.4245 25.3423 79.943 24.5969 79.3039 24.0491C78.6648 23.5013 77.8682 23.2274 76.9142 23.2274C75.9511 23.2274 75.141 23.5013 74.4839 24.0491C73.8359 24.5969 73.3453 25.3423 73.0123 26.2852C72.6882 27.2282 72.5262 28.3013 72.5262 29.5047C72.5262 30.7081 72.6882 31.7813 73.0123 32.7242C73.3453 33.6672 73.8359 34.4126 74.4839 34.9604C75.141 35.4992 75.9511 35.7686 76.9142 35.7686Z" fill="#0F2412"/>
<path d="M52.9255 39.8098V19.1188H58.5015V22.729H58.7176C59.0956 21.4448 59.7302 20.4749 60.6212 19.8193C61.5123 19.1547 62.5384 18.8225 63.6996 18.8225C63.9876 18.8225 64.2981 18.8404 64.6311 18.8763C64.9642 18.9123 65.2567 18.9617 65.5087 19.0245V24.1164C65.2387 24.0356 64.8652 23.9638 64.3881 23.9009C63.9111 23.8381 63.4745 23.8066 63.0785 23.8066C62.2324 23.8066 61.4763 23.9907 60.8103 24.3589C60.1532 24.7181 59.6311 25.221 59.2441 25.8676C58.8661 26.5142 58.6771 27.2596 58.6771 28.1038V39.8098H52.9255Z" fill="#0F2412"/>
<path d="M38.2092 48C36.346 48 34.7483 47.7441 33.4162 47.2322C32.0931 46.7293 31.04 46.0423 30.2569 45.1712C29.4738 44.3 28.9653 43.3212 28.7312 42.2345L34.0508 41.5206C34.2128 41.9337 34.4693 42.3199 34.8203 42.6791C35.1714 43.0383 35.6349 43.3257 36.211 43.5412C36.796 43.7657 37.5071 43.878 38.3442 43.878C39.5953 43.878 40.6259 43.5726 41.436 42.962C42.2551 42.3603 42.6646 41.35 42.6646 39.931V36.1458H42.4216C42.1696 36.7205 41.7915 37.2639 41.2875 37.7757C40.7834 38.2876 40.1354 38.7052 39.3433 39.0285C38.5512 39.3518 37.6061 39.5135 36.508 39.5135C34.9509 39.5135 33.5332 39.1542 32.2551 38.4358C30.986 37.7084 29.9734 36.5993 29.2173 35.1085C28.4702 33.6088 28.0967 31.7139 28.0967 29.4239C28.0967 27.08 28.4792 25.1223 29.2443 23.5507C30.0094 21.9791 31.0265 20.8027 32.2956 20.0214C33.5737 19.2401 34.9734 18.8494 36.4945 18.8494C37.6556 18.8494 38.6277 19.047 39.4108 19.4421C40.1939 19.8283 40.8239 20.3132 41.301 20.897C41.787 21.4717 42.1606 22.0375 42.4216 22.5943H42.6376V19.1188H48.3487V40.0119C48.3487 41.772 47.9167 43.2448 47.0526 44.4303C46.1885 45.6157 44.9914 46.5048 43.4612 47.0975C41.9401 47.6992 40.1894 48 38.2092 48ZM38.3307 35.2028C39.2578 35.2028 40.0409 34.9738 40.6799 34.5158C41.328 34.0489 41.823 33.3843 42.1651 32.5222C42.5161 31.6511 42.6917 30.6093 42.6917 29.397C42.6917 28.1846 42.5206 27.1339 42.1786 26.2448C41.8365 25.3468 41.3415 24.6508 40.6934 24.1569C40.0454 23.6629 39.2578 23.416 38.3307 23.416C37.3856 23.416 36.589 23.6719 35.9409 24.1838C35.2929 24.6867 34.8023 25.3872 34.4693 26.2852C34.1363 27.1833 33.9698 28.2205 33.9698 29.397C33.9698 30.5914 34.1363 31.6241 34.4693 32.4952C34.8113 33.3574 35.3019 34.0264 35.9409 34.5024C36.589 34.9693 37.3856 35.2028 38.3307 35.2028Z" fill="#0F2412"/>
<path d="M6.26463 39.8098H0L9.54546 12.2218H17.0792L26.6112 39.8098H20.3465L13.4204 18.5261H13.2043L6.26463 39.8098ZM5.87309 28.9659H20.6706V33.519H5.87309V28.9659Z" fill="#0F2412"/>
<path d="M85.7406 17.9023C87.6506 11.2319 87.6484 10.684 96.9714 7.70219C94.6585 14.9736 94.5518 15.4716 85.7406 17.9023Z" fill="#0F2412"/>
<path d="M80.369 15.5745C80.6486 8.64278 80.9306 7.96279 73.0123 2.21823C72.9266 9.84656 72.7639 10.5132 80.369 15.5745Z" fill="#0F2412"/>
<path d="M83.8768 15.0605C88.3656 9.76249 89.8049 9.38619 87.0942 0C82.3295 5.96657 80.9925 6.40541 83.8768 15.0605Z" fill="#0F2412"/>
</svg>
