<svg width="700" height="168" viewBox="0 0 700 168" fill="none" xmlns="http://www.w3.org/2000/svg">
<path d="M629.705 140.152C622.365 140.152 616.017 138.603 610.662 135.505C605.338 132.375 601.226 128.024 598.328 122.453C595.43 116.851 593.981 110.356 593.981 102.97C593.981 95.5208 595.43 89.0107 598.328 83.4396C601.226 77.8372 605.338 73.4867 610.662 70.3881C616.017 67.2583 622.365 65.6934 629.705 65.6934C637.046 65.6934 643.378 67.2583 648.702 70.3881C654.057 73.4867 658.184 77.8372 661.082 83.4396C663.981 89.0107 665.43 95.5208 665.43 102.97C665.43 110.356 663.981 116.851 661.082 122.453C658.184 128.024 654.057 132.375 648.702 135.505C643.378 138.603 637.046 140.152 629.705 140.152ZM629.8 124.66C633.139 124.66 635.927 123.721 638.164 121.843C640.401 119.934 642.086 117.336 643.22 114.049C644.386 110.763 644.969 107.023 644.969 102.829C644.969 98.635 644.386 94.8948 643.22 91.6085C642.086 88.3221 640.401 85.7244 638.164 83.8152C635.927 81.906 633.139 80.9514 629.8 80.9514C626.429 80.9514 623.594 81.906 621.294 83.8152C619.026 85.7244 617.309 88.3221 616.143 91.6085C615.009 94.8948 614.442 98.635 614.442 102.829C614.442 107.023 615.009 110.763 616.143 114.049C617.309 117.336 619.026 119.934 621.294 121.843C623.594 123.721 626.429 124.66 629.8 124.66Z" fill="#0F2412"/>
<path d="M545.839 138.744V66.6323H565.356V79.2143H566.112C567.435 74.7386 569.656 71.3584 572.775 69.0736C575.893 66.7575 579.485 65.5995 583.549 65.5995C584.557 65.5995 585.644 65.6621 586.809 65.7873C587.975 65.9125 588.999 66.0846 589.881 66.3037V84.0499C588.936 83.7682 587.628 83.5178 585.959 83.2987C584.289 83.0797 582.761 82.9701 581.375 82.9701C578.414 82.9701 575.767 83.6117 573.436 84.895C571.136 86.1469 569.309 87.8996 567.955 90.1531C566.631 92.4066 565.97 95.0044 565.97 97.9464V138.744H545.839Z" fill="#0F2412"/>
<path d="M494.332 167.288C487.811 167.288 482.219 166.396 477.557 164.612C472.926 162.859 469.24 160.465 466.499 157.429C463.759 154.393 461.979 150.982 461.16 147.195L479.778 144.706C480.345 146.146 481.243 147.492 482.471 148.744C483.7 149.996 485.322 150.997 487.339 151.748C489.386 152.531 491.875 152.922 494.805 152.922C499.184 152.922 502.791 151.858 505.626 149.73C508.493 147.633 509.926 144.112 509.926 139.166V125.974H509.076C508.194 127.977 506.871 129.871 505.106 131.655C503.342 133.439 501.074 134.894 498.302 136.021C495.529 137.148 492.222 137.711 488.378 137.711C482.928 137.711 477.966 136.459 473.493 133.955C469.051 131.42 465.507 127.555 462.861 122.359C460.246 117.132 458.939 110.528 458.939 102.547C458.939 94.3784 460.277 87.5553 462.955 82.0781C465.633 76.6009 469.193 72.5008 473.635 69.7778C478.108 67.0549 483.007 65.6934 488.331 65.6934C492.395 65.6934 495.797 66.3819 498.538 67.7591C501.279 69.1049 503.484 70.795 505.154 72.8294C506.855 74.8325 508.162 76.8043 509.076 78.7448H509.832V66.6323H529.821V139.448C529.821 145.583 528.309 150.716 525.284 154.847C522.26 158.978 518.07 162.077 512.714 164.143C507.39 166.24 501.263 167.288 494.332 167.288ZM494.758 122.688C498.002 122.688 500.743 121.89 502.98 120.294C505.248 118.666 506.981 116.35 508.178 113.345C509.407 110.309 510.021 106.679 510.021 102.453C510.021 98.2281 509.422 94.5662 508.225 91.4676C507.028 88.3378 505.295 85.9122 503.027 84.1908C500.759 82.4693 498.002 81.6086 494.758 81.6086C491.45 81.6086 488.662 82.5006 486.394 84.2847C484.125 86.0374 482.408 88.4786 481.243 91.6085C480.077 94.7383 479.494 98.3533 479.494 102.453C479.494 106.616 480.077 110.215 481.243 113.251C482.44 116.256 484.157 118.588 486.394 120.247C488.662 121.874 491.45 122.688 494.758 122.688Z" fill="#0F2412"/>
<path d="M382.526 138.744H360.6L394.009 42.595H420.378L453.739 138.744H431.813L407.572 64.5666H406.815L382.526 138.744ZM381.156 100.951H432.947V116.819H381.156V100.951Z" fill="#0F2412"/>
<path d="M250.805 138.744V66.6323H258.98V77.712H259.736C261.185 73.9875 263.595 71.0611 266.966 68.9328C270.368 66.7732 274.448 65.6934 279.205 65.6934C284.214 65.6934 288.325 66.8671 291.538 69.2144C294.783 71.5305 297.209 74.723 298.815 78.7918H299.43C301.068 74.7856 303.73 71.6088 307.416 69.2614C311.133 66.8827 315.638 65.6934 320.931 65.6934C327.672 65.6934 332.996 67.806 336.903 72.0313C340.809 76.2253 342.762 82.3598 342.762 90.4348V138.744H334.351V90.4348C334.351 84.7385 332.886 80.4662 329.956 77.6181C327.027 74.7699 323.167 73.3458 318.379 73.3458C312.834 73.3458 308.566 75.036 305.573 78.4162C302.58 81.7964 301.084 86.0843 301.084 91.2798V138.744H292.483V89.6836C292.483 84.8011 291.113 80.8575 288.372 77.8528C285.631 74.8482 281.772 73.3458 276.795 73.3458C273.455 73.3458 270.447 74.1596 267.769 75.7871C265.123 77.4146 263.028 79.6838 261.484 82.5945C259.972 85.474 259.216 88.7916 259.216 92.5474V138.744H250.805Z" fill="#0F2412"/>
<path d="M197.005 140.387C192.626 140.387 188.625 139.542 185.002 137.852C181.379 136.13 178.497 133.658 176.354 130.434C174.212 127.179 173.141 123.235 173.141 118.603C173.141 115.035 173.818 112.031 175.173 109.589C176.528 107.148 178.449 105.145 180.938 103.58C183.427 102.015 186.372 100.779 189.775 99.8712C193.177 98.9635 196.926 98.2593 201.021 97.7585C205.085 97.2577 208.519 96.8196 211.323 96.444C214.158 96.0684 216.316 95.4737 217.797 94.66C219.278 93.8462 220.018 92.5317 220.018 90.7164V89.0262C220.018 84.1124 218.537 80.247 215.576 77.4302C212.646 74.582 208.425 73.1579 202.912 73.1579C197.682 73.1579 193.413 74.3003 190.106 76.5851C186.829 78.8699 184.53 81.5616 183.206 84.6601L175.22 81.7963C176.858 77.8527 179.127 74.7072 182.025 72.3598C184.923 69.9811 188.168 68.2754 191.759 67.2425C195.351 66.1784 198.989 65.6463 202.675 65.6463C205.448 65.6463 208.33 66.0062 211.323 66.7261C214.347 67.446 217.151 68.6979 219.734 70.4819C222.318 72.2346 224.413 74.6916 226.019 77.8527C227.626 80.9825 228.429 84.9575 228.429 89.7774V138.744H220.018V127.336H219.498C218.49 129.464 216.994 131.53 215.009 133.533C213.024 135.536 210.535 137.179 207.543 138.462C204.55 139.745 201.037 140.387 197.005 140.387ZM198.139 132.735C202.612 132.735 206.487 131.749 209.764 129.777C213.04 127.805 215.56 125.192 217.324 121.937C219.12 118.65 220.018 115.035 220.018 111.092V100.669C219.388 101.264 218.332 101.796 216.852 102.265C215.403 102.735 213.717 103.157 211.796 103.533C209.905 103.877 208.015 104.175 206.125 104.425C204.235 104.675 202.534 104.895 201.021 105.082C196.926 105.583 193.429 106.366 190.531 107.43C187.633 108.494 185.412 109.965 183.868 111.843C182.324 113.689 181.552 116.068 181.552 118.979C181.552 123.361 183.128 126.757 186.278 129.166C189.428 131.545 193.382 132.735 198.139 132.735Z" fill="#0F2412"/>
<path d="M107.564 93.6741V138.744H99.1523V42.595H107.564V77.9466H108.32C110.021 74.2221 112.651 71.2488 116.211 69.0266C119.803 66.8044 124.339 65.6933 129.821 65.6933C134.735 65.6933 139.051 66.6948 142.768 68.698C146.486 70.701 149.384 73.6588 151.463 77.5711C153.543 81.4834 154.582 86.3033 154.582 92.0309V138.744H146.124V92.5474C146.124 86.6007 144.454 81.9215 141.115 78.51C137.807 75.0672 133.333 73.3458 127.694 73.3458C123.819 73.3458 120.37 74.1595 117.345 75.787C114.321 77.4146 111.927 79.762 110.163 82.8292C108.43 85.8652 107.564 89.4801 107.564 93.6741Z" fill="#0F2412"/>
<path d="M80.1441 72.6415H71.2602C70.5986 69.3552 69.4015 66.3192 67.6688 63.5336C65.9676 60.7168 63.8254 58.2599 61.2422 56.1629C58.6589 54.0659 55.7291 52.4383 52.4528 51.2803C49.1765 50.1223 45.6324 49.5432 41.8205 49.5432C35.7089 49.5432 30.1328 51.1238 25.0923 54.285C20.0833 57.4461 16.0666 62.0939 13.0423 68.2284C10.0495 74.3316 8.55311 81.8119 8.55311 90.6694C8.55311 99.5895 10.0495 107.101 13.0423 113.204C16.0666 119.307 20.0833 123.94 25.0923 127.101C30.1328 130.231 35.7089 131.796 41.8205 131.796C45.6324 131.796 49.1765 131.217 52.4528 130.059C55.7291 128.9 58.6589 127.289 61.2422 125.223C63.8254 123.126 65.9676 120.669 67.6688 117.852C69.4015 115.035 70.5986 111.984 71.2602 108.697H80.1441C79.3565 113.11 77.8758 117.226 75.7021 121.045C73.5599 124.832 70.8191 128.149 67.4798 130.997C64.172 133.846 60.3601 136.068 56.0442 137.664C51.7282 139.26 46.987 140.058 41.8205 140.058C33.6926 140.058 26.4784 138.04 20.1778 134.002C13.8771 129.933 8.93115 124.206 5.33979 116.819C1.77993 109.433 0 100.716 0 90.6694C0 80.6226 1.77993 71.906 5.33979 64.5195C8.93115 57.1331 13.8771 51.4211 20.1778 47.3836C26.4784 43.3148 33.6926 41.2804 41.8205 41.2804C46.987 41.2804 51.7282 42.0786 56.0442 43.6748C60.3601 45.2397 64.172 47.4619 67.4798 50.3414C70.8191 53.1895 73.5599 56.5071 75.7021 60.2943C77.8758 64.0814 79.3565 68.1971 80.1441 72.6415Z" fill="#0F2412"/>
<path d="M660.692 62.3926C667.377 39.1449 667.369 37.2354 700 26.8434C691.905 52.1856 691.531 53.9211 660.692 62.3926Z" fill="#0F2412"/>
<path d="M641.892 54.2798C642.87 30.1216 643.857 27.7517 616.143 7.73091C615.844 34.3169 615.274 36.6402 641.892 54.2798Z" fill="#0F2412"/>
<path d="M654.169 52.4885C669.88 34.0239 674.917 32.7124 665.43 0C648.754 20.7945 644.074 22.3239 654.169 52.4885Z" fill="#0F2412"/>
</svg>
